<?xml version="1.0" encoding="UTF-8"?><svg id="Layer_2" xmlns="http://www.w3.org/2000/svg" viewBox="0 0 313.56 369.95"><g id="Layer_1-2"><path d="M79.51,67.07c2.99-.6-7.18-1.2-13.17,2.39-5.39,1.8-10.17,4.79-14.36,8.38-3.59,2.99-2.39-13.17,14.96-20.95,7.18-2.39,13.17-2.99,20.35-1.8-.6-1.2-20.35-6.58-20.35-7.78-.6-4.79,25.13-1.8,29.32,0,1.2.6,4.19,2.99,4.79,2.99-2.39-4.19,30.52-49.67,37.7-49.07,26.33,4.19,35.31,49.07,53.26,16.76,2.39-4.79,12.57-17.35,17.95-17.95,5.39-1.2,83.18,23.94,81.99,35.91-.6,11.97-7.78,25.73-15.56,34.71-9.58,9.58,35.31,157.39,37.1,166.37,3.59-1.8-156.19,132.26-159.79,132.86-18.55,3.59,18.55-140.04,8.38-178.94-4.19,35.91-14.96,112.51-23.34,45.48l-1.2-6.58c-5.39,26.33-9.58,52.06-28.13,70.62-8.38,8.38-2.39-27.53-5.39-24.54-11.97,11.97-7.18,42.49-7.18,64.63,0,11.37-37.1-82.59-39.5-61.64,0,.6,1.2,20.95.6,20.95-7.18,0-17.35-51.47-21.54-53.86-1.2-.6,1.2,13.76-1.2,20.35-4.19,11.97-10.17-31.72-15.56-47.28-.6-1.8-2.39,16.76-1.8,20.35-7.18,13.76-7.78-19.15-9.58-39.5-2.39,5.98-2.99,13.17-4.19,14.36-10.77,10.77,0-72.41,28.13-84.38,28.73-11.97,55.06-15.56,59.25-45.48-11.37.6-31.72,11.97-35.91,13.76-4.19,2.39-1.8-17.35,11.97-25.73l11.97-5.39Z"/></g></svg>